<?xml version="1.0" encoding="UTF-8"?>
<svg id="Layer_1" data-name="Layer 1" xmlns="http://www.w3.org/2000/svg" viewBox="0 0 256 256">
  <defs>
    <style>
      .cls-1 {
        fill: #fff;
      }
    </style>
  </defs>
  <path class="cls-1" d="m237.9,0H.18v256h256V0h-18.29Zm-109.71,150.35c-42.64,0-77.21-34.57-77.21-77.21h44.7c0,17.95,14.55,32.51,32.51,32.51,42.64,0,77.21,34.57,77.21,77.21h-44.7c0-17.95-14.55-32.51-32.51-32.51Zm77.21-54.86h-44.7c0-17.95-14.55-32.51-32.51-32.51V18.29c42.64,0,77.21,34.57,77.21,77.21ZM50.98,160.51h44.7c0,17.95,14.55,32.51,32.51,32.51v44.7c-42.64,0-77.21-34.57-77.21-77.21Z"/>
</svg>